<svg width="48" height="48" viewBox="0 0 48 48" fill="none" xmlns="http://www.w3.org/2000/svg">
<path d="M10.6 43.25C9.69995 43.25 8.90829 42.9083 8.22495 42.225C7.54162 41.5417 7.19995 40.75 7.19995 39.85V16.9C7.19995 15.9667 7.54162 15.1583 8.22495 14.475C8.90829 13.7917 9.69995 13.45 10.6 13.45H15.55C15.55 11.0833 16.35 9.08333 17.95 7.45C19.55 5.81667 21.5333 5 23.9 5C26.2333 5 28.2416 5.825 29.9249 7.475C31.6083 9.125 32.45 11.1167 32.45 13.45H37.4C38.3 13.45 39.0916 13.7917 39.775 14.475C40.4583 15.1583 40.7999 15.9667 40.7999 16.9V39.85C40.7999 40.75 40.4583 41.5417 39.775 42.225C39.0916 42.9083 38.3 43.25 37.4 43.25H10.6ZM10.6 41.05H37.4C37.7 41.05 37.9749 40.925 38.2249 40.675C38.4749 40.425 38.5999 40.15 38.5999 39.85V16.9C38.5999 16.6 38.4749 16.3167 38.2249 16.05C37.9749 15.7833 37.7 15.65 37.4 15.65H10.6C10.3 15.65 10.025 15.7833 9.77495 16.05C9.52495 16.3167 9.39995 16.6 9.39995 16.9V39.85C9.39995 40.15 9.52495 40.425 9.77495 40.675C10.025 40.925 10.3 41.05 10.6 41.05ZM24 26.4C26.3666 26.4 28.3916 25.5583 30.075 23.875C31.7583 22.1917 32.5999 20.1667 32.5999 17.8H30.4C30.4 19.6 29.7666 21.1167 28.5 22.35C27.2333 23.5833 25.7333 24.2 24 24.2C22.2333 24.2 20.725 23.575 19.475 22.325C18.225 21.075 17.6 19.5667 17.6 17.8H15.45C15.45 20.1667 16.2833 22.1917 17.95 23.875C19.6166 25.5583 21.6333 26.4 24 26.4ZM17.7 13.45H30.2999C30.2999 11.6833 29.6833 10.2 28.45 9C27.2166 7.8 25.7333 7.2 24 7.2C22.2333 7.2 20.7416 7.80833 19.525 9.025C18.3083 10.2417 17.7 11.7167 17.7 13.45ZM9.39995 41.05V15.65V41.05Z" fill="#CFF69B"/>
</svg>
